<svg xmlns="http://www.w3.org/2000/svg" viewBox="0 0 1254 1254" width="1254" height="1254">
  <title>figma</title>
  <g fill-rule="evenodd" clip-rule="evenodd">
    <path fill="#000000" d="M 610 819 L 416 819 L 378 829 L 344 849 L 320 873 L 305 896 L 294 923 L 289 949 L 289 979 L 295 1009 L 306 1035 L 320 1056 L 339 1075 L 372 1095 L 405 1105 L 432 1108 L 470 1106 L 501 1099 L 535 1084 L 554 1071 L 585 1038 L 597 1017 L 607 988 L 610 968 Z M 324 558 L 308 581 L 296 608 L 290 635 L 289 665 L 293 692 L 303 721 L 322 751 L 341 770 L 371 788 L 405 797 L 610 797 L 610 505 L 427 505 L 411 507 L 386 514 L 360 527 L 341 541 Z M 768 500 L 743 505 L 707 520 L 681 538 L 655 566 L 638 596 L 628 629 L 626 670 L 629 691 L 639 722 L 656 751 L 674 771 L 696 788 L 725 802 L 755 810 L 770 812 L 820 810 L 850 802 L 882 787 L 903 772 L 930 743 L 944 719 L 954 689 L 957 670 L 955 628 L 946 598 L 934 575 L 917 553 L 892 531 L 862 514 L 837 505 L 799 499 Z M 645 164 L 646 476 L 810 476 L 840 473 L 858 468 L 886 455 L 906 441 L 923 425 L 938 405 L 952 377 L 960 344 L 961 318 L 956 285 L 944 253 L 929 229 L 907 205 L 884 188 L 867 179 L 826 166 L 809 164 Z M 331 222 L 313 247 L 298 281 L 292 311 L 292 342 L 296 366 L 306 394 L 319 416 L 336 436 L 369 460 L 394 470 L 419 475 L 610 475 L 610 164 L 449 164 L 422 168 L 399 175 L 374 187 L 352 202 Z M 877 139 L 921 165 L 958 202 L 983 244 L 993 272 L 998 296 L 1000 318 L 998 354 L 992 380 L 979 412 L 961 440 L 936 466 L 900 490 L 932 513 L 958 541 L 972 562 L 989 603 L 996 642 L 995 681 L 990 705 L 974 744 L 950 778 L 914 810 L 876 831 L 825 846 L 778 849 L 747 846 L 725 841 L 685 825 L 663 811 L 647 797 L 647 969 L 645 988 L 640 1010 L 631 1034 L 620 1054 L 605 1074 L 578 1100 L 549 1119 L 516 1133 L 488 1140 L 456 1144 L 410 1143 L 376 1136 L 342 1122 L 314 1103 L 292 1081 L 278 1062 L 260 1024 L 251 982 L 253 931 L 265 892 L 278 868 L 297 843 L 319 822 L 336 810 L 313 794 L 294 775 L 279 755 L 268 735 L 259 712 L 252 679 L 251 638 L 253 621 L 266 578 L 284 547 L 316 513 L 349 491 L 321 473 L 296 449 L 277 422 L 259 379 L 253 346 L 253 304 L 261 266 L 274 235 L 302 195 L 340 161 L 380 139 L 431 124 L 447 122 L 811 122 L 849 129 Z M 880 120 L 846 109 L 807 103 L 451 103 L 420 107 L 396 113 L 364 125 L 325 148 L 288 182 L 258 226 L 244 259 L 236 296 L 234 330 L 239 372 L 249 405 L 266 438 L 291 470 L 315 492 L 295 508 L 274 531 L 260 551 L 249 573 L 236 616 L 233 665 L 239 705 L 249 735 L 269 771 L 305 811 L 276 841 L 261 862 L 249 885 L 235 931 L 233 977 L 241 1022 L 250 1046 L 265 1074 L 280 1094 L 300 1114 L 333 1137 L 357 1148 L 388 1157 L 409 1160 L 449 1161 L 508 1153 L 525 1148 L 563 1131 L 596 1108 L 624 1079 L 639 1057 L 655 1022 L 664 978 L 665 834 L 695 849 L 718 857 L 759 865 L 807 865 L 851 857 L 890 843 L 936 815 L 972 779 L 993 746 L 1004 720 L 1013 679 L 1014 648 L 1010 614 L 1000 581 L 984 548 L 964 520 L 934 491 L 947 481 L 978 448 L 1003 403 L 1011 380 L 1017 347 L 1018 314 L 1016 294 L 1010 266 L 1001 241 L 987 213 L 969 187 L 933 151 L 908 134 Z"/>
    <path fill="#FFFFFF" d="M 610 818 L 611 968 L 608 988 L 598 1017 L 586 1038 L 554 1072 L 535 1085 L 501 1100 L 470 1107 L 432 1109 L 405 1106 L 372 1096 L 339 1076 L 319 1056 L 305 1035 L 294 1009 L 288 979 L 288 949 L 293 923 L 304 896 L 319 873 L 344 848 L 378 828 L 416 818 Z M 323 558 L 341 540 L 360 526 L 386 513 L 411 506 L 427 504 L 610 504 L 611 797 L 609 799 L 405 798 L 371 789 L 341 771 L 321 751 L 305 727 L 294 700 L 288 665 L 289 635 L 295 608 L 307 581 Z M 768 499 L 799 498 L 829 502 L 862 513 L 892 530 L 918 553 L 935 575 L 947 598 L 956 628 L 958 670 L 955 689 L 945 719 L 931 743 L 903 773 L 882 788 L 850 803 L 820 811 L 804 813 L 755 811 L 725 803 L 696 789 L 674 772 L 655 751 L 638 722 L 628 691 L 625 670 L 627 629 L 637 596 L 654 566 L 681 537 L 707 519 L 743 504 Z M 644 164 L 809 163 L 826 165 L 867 178 L 884 187 L 907 204 L 930 229 L 945 253 L 957 285 L 962 318 L 961 344 L 953 377 L 939 405 L 924 425 L 906 442 L 886 456 L 858 469 L 840 474 L 810 477 L 646 477 L 644 475 Z M 330 222 L 352 201 L 374 186 L 399 174 L 422 167 L 449 163 L 610 163 L 611 475 L 609 477 L 419 476 L 394 471 L 369 461 L 336 437 L 318 416 L 305 394 L 295 366 L 291 342 L 291 311 L 297 281 L 312 247 Z M 877 140 L 849 130 L 811 123 L 447 123 L 431 125 L 380 140 L 340 162 L 303 195 L 275 235 L 262 266 L 254 304 L 254 346 L 260 379 L 268 402 L 289 439 L 316 468 L 348 489 L 349 492 L 316 514 L 285 547 L 267 578 L 254 621 L 252 638 L 253 679 L 258 705 L 269 735 L 280 755 L 295 775 L 313 793 L 335 808 L 336 811 L 319 823 L 298 843 L 279 868 L 266 892 L 254 931 L 251 964 L 252 982 L 261 1024 L 279 1062 L 293 1081 L 314 1102 L 342 1121 L 376 1135 L 410 1142 L 456 1143 L 488 1139 L 516 1132 L 549 1118 L 578 1099 L 604 1074 L 619 1054 L 630 1034 L 639 1010 L 644 988 L 646 969 L 647 797 L 685 824 L 725 840 L 747 845 L 778 848 L 825 845 L 876 830 L 914 809 L 949 778 L 973 744 L 983 723 L 994 681 L 995 642 L 988 603 L 979 578 L 957 541 L 932 514 L 899 490 L 936 465 L 960 440 L 978 412 L 991 380 L 997 354 L 999 333 L 997 296 L 992 272 L 982 244 L 957 202 L 921 166 Z"/>
  </g>
</svg>
