<svg xmlns="http://www.w3.org/2000/svg" viewBox="0 0 1254 1254" width="1254" height="1254">
  <title>git</title>
  <g fill-rule="evenodd" clip-rule="evenodd">
    <path fill="#000000" d="M 635 157 L 614 159 L 596 169 L 468 298 L 576 407 L 608 395 L 633 394 L 656 400 L 673 410 L 691 429 L 704 456 L 707 487 L 703 508 L 698 520 L 796 619 L 821 608 L 842 605 L 857 606 L 881 614 L 904 632 L 920 657 L 925 674 L 926 697 L 919 725 L 910 741 L 897 756 L 870 774 L 848 780 L 816 778 L 786 764 L 767 745 L 753 718 L 750 704 L 750 682 L 758 657 L 660 559 L 645 566 L 645 823 L 670 837 L 690 860 L 701 889 L 701 918 L 695 938 L 682 959 L 664 976 L 641 988 L 624 992 L 596 991 L 575 984 L 554 970 L 542 957 L 529 933 L 525 916 L 525 892 L 530 874 L 543 852 L 560 836 L 584 823 L 584 565 L 569 558 L 553 546 L 537 526 L 530 511 L 526 492 L 528 465 L 537 443 L 430 335 L 138 624 L 129 646 L 132 670 L 143 687 L 588 1135 L 602 1143 L 623 1147 L 649 1141 L 671 1123 L 815 983 L 1118 681 L 1126 663 L 1126 643 L 1118 625 L 658 166 Z M 618 100 L 640 100 L 656 103 L 679 113 L 694 124 L 1152 584 L 1173 616 L 1181 650 L 1179 673 L 1174 690 L 1156 719 L 866 1008 L 697 1172 L 667 1191 L 632 1199 L 593 1195 L 565 1183 L 554 1175 L 109 727 L 95 711 L 86 696 L 79 677 L 76 659 L 77 637 L 82 618 L 93 596 L 104 582 L 566 122 L 596 105 Z M 614 87 L 583 96 L 557 112 L 93 575 L 81 591 L 70 613 L 64 637 L 63 659 L 66 679 L 74 701 L 95 731 L 535 1175 L 559 1194 L 582 1205 L 610 1211 L 640 1211 L 669 1204 L 702 1185 L 848 1044 L 1158 736 L 1172 720 L 1185 698 L 1192 674 L 1194 652 L 1186 613 L 1169 583 L 702 113 L 685 101 L 658 90 L 643 87 Z"/>
    <path fill="#FFFFFF" d="M 624 156 L 644 158 L 658 165 L 1119 625 L 1127 643 L 1127 663 L 1119 681 L 815 984 L 658 1136 L 644 1144 L 633 1147 L 613 1147 L 602 1144 L 588 1136 L 142 687 L 131 670 L 128 646 L 137 624 L 430 334 L 538 443 L 529 465 L 527 492 L 531 511 L 538 526 L 550 542 L 569 557 L 585 565 L 585 823 L 560 837 L 544 852 L 531 874 L 526 892 L 526 916 L 530 933 L 537 948 L 554 969 L 569 980 L 596 990 L 624 991 L 641 987 L 664 975 L 681 959 L 694 938 L 700 918 L 700 889 L 689 860 L 670 838 L 644 823 L 645 565 L 661 559 L 759 657 L 751 682 L 751 704 L 754 718 L 768 745 L 786 763 L 816 777 L 848 779 L 870 773 L 897 755 L 909 741 L 918 725 L 925 697 L 924 674 L 919 657 L 903 632 L 881 615 L 857 607 L 831 607 L 795 619 L 697 520 L 702 508 L 706 487 L 703 456 L 692 432 L 673 411 L 656 401 L 633 395 L 608 396 L 576 408 L 467 298 L 596 168 L 611 159 Z M 618 101 L 596 106 L 566 123 L 105 582 L 94 596 L 83 618 L 78 637 L 77 659 L 80 677 L 87 696 L 96 711 L 110 727 L 554 1174 L 565 1182 L 593 1194 L 632 1198 L 667 1190 L 697 1171 L 1027 847 L 1160 713 L 1176 681 L 1180 650 L 1172 616 L 1151 584 L 694 125 L 679 114 L 656 104 L 640 101 Z"/>
  </g>
</svg>
