<svg width="150" height="56" viewBox="0 0 150 56" fill="none" xmlns="http://www.w3.org/2000/svg">
<rect y="9.5" width="150" height="46" rx="4" fill="#262626"/>
<path d="M130.507 9.05077C127.549 -1.69221 138.427 -1.57544 140.223 5.31408L144.87 36.4921C146.242 42.2139 138.322 44.3158 137.371 38.1269L133.886 14.6558" stroke="#777976" stroke-width="0.999455" stroke-linejoin="round"/>
<path d="M130.507 9.05077C127.549 -1.69221 138.427 -1.57544 140.223 5.31408L144.87 36.4921C146.242 42.2139 138.322 44.3158 137.371 38.1269L133.886 14.6558" stroke="#BFC1BE" stroke-width="0.666304" stroke-linejoin="round"/>
<path d="M130.507 9.05077C127.549 -1.69221 138.427 -1.57544 140.223 5.31408L144.87 36.4921C146.242 42.2139 138.322 44.3158 137.371 38.1269L133.886 14.6558" stroke="#F4F4F0" stroke-width="0.277626" stroke-linejoin="round"/>
</svg>
